<svg width="168" height="214" viewBox="0 0 168 214" fill="none" xmlns="http://www.w3.org/2000/svg">
<rect opacity="0.100655" y="46" width="168" height="168" rx="24" fill="#3F8CFF"/>
<path fill-rule="evenodd" clip-rule="evenodd" d="M25 118.099V94.5142C25 90.3652 33.4076 87 43.7737 87H86.2263C96.596 87 105 90.3652 105 94.5142V119L25 118.099" fill="#B0D4FF"/>
<path fill-rule="evenodd" clip-rule="evenodd" d="M84.4004 3.30169C79.3827 0.655218 71.7451 0.297428 70.5062 0.130241C55.661 -1.87236 46.7262 19.7827 46.2015 26.3458C45.2322 38.4404 38.859 40.2842 29.8914 47.8571C11.9051 63.0467 17.1778 80.6947 27.0127 87.2505C32.9158 91.1869 43.3155 87.2505 43.3155 87.2505C43.4612 87.3529 71.7597 71.3695 85.7085 63.6576C106.621 60.6724 97.1868 10.0441 84.4004 3.30169" fill="#233862"/>
<path fill-rule="evenodd" clip-rule="evenodd" d="M62.6436 57.1725C58.2575 55.2607 54.9385 48.1557 55.0009 48.1521C56.9959 48.0617 59.9326 45.2755 61.6196 34L62 34.2683L76 40.4327C76 40.4327 74.9658 44.9465 74.2947 49.2435C73.7336 52.8538 73.4292 56.3124 74.2103 56.8219C74.2727 56.8617 67.3011 59.2035 62.6436 57.1725Z" fill="#FFB27D"/>
<path fill-rule="evenodd" clip-rule="evenodd" d="M76 40.1091C76 40.1091 74.9859 44.664 74.3278 49C66.2867 47.534 63.1292 39.409 62 35L76 40.1091" fill="#ED975D"/>
<path fill-rule="evenodd" clip-rule="evenodd" d="M78.9236 43.9951C78.9236 43.9951 59.2923 41.3976 61.1202 29.3896C62.948 17.3817 61.6472 8.95794 74.2581 10.1043C86.869 11.2543 88.6011 16.1954 88.9807 20.3492C89.3603 24.503 84.0756 44.3579 78.9236 43.9951" fill="#FFB27D"/>
<path fill-rule="evenodd" clip-rule="evenodd" d="M88 14.9706C88 14.9706 75.7764 25.9412 67.4636 26.8262C59.1473 27.7111 56 24.9293 56 24.9293C56 24.9293 60.9002 20.6911 63.8503 13.8504C64.7178 11.834 66.5567 10.4524 68.6717 10.262C74.6078 9.728 85.86 9.48529 88 14.9706" fill="#233862"/>
<path fill-rule="evenodd" clip-rule="evenodd" d="M80 13.3415C80 13.3415 84.1397 17.3952 85.447 20.4015C86.7034 23.3049 87.0811 30.2436 86.0788 33C86.0788 33 92.5353 20.2986 88.8786 14.128C85.0039 7.58253 80 13.3415 80 13.3415" fill="#233862"/>
<path fill-rule="evenodd" clip-rule="evenodd" d="M86.5477 120.157C85.511 121.043 82.6046 121.572 78.7816 121.821C66.7523 122.613 45.6109 120.651 44.807 118.451C42.0316 110.839 43.9922 108.473 41.6787 96.8174C41.435 95.5788 41.1368 94.2357 40.7876 92.7738C38.856 84.7694 36.9791 82.0473 43.8249 69.1855C50.0342 57.5372 56.0124 47.6666 56.5944 48.0086C72.9743 57.6334 74.1775 50.602 74.1775 50.602C74.1775 50.602 91.2838 66.8198 90.9964 85.7596C90.4108 124.586 90.8364 116.47 86.5477 120.157Z" fill="white"/>
<path fill-rule="evenodd" clip-rule="evenodd" d="M45.9824 118.463C43.1804 110.732 44.3356 107.314 42 95.4772L48.3963 80C48.3963 80 47.4305 98.2867 52.8435 103.095C58.2564 107.904 75.0167 112.379 77.6497 116.398C78.9203 118.329 79.7576 120.259 80 121.813C67.8558 122.618 46.7939 120.697 45.9824 118.463Z" fill="#EBF3FF"/>
<path fill-rule="evenodd" clip-rule="evenodd" d="M65 114.015C65 114.015 76.861 111.118 78.7736 112.271C80.6861 113.429 85.3622 117.634 85.9512 119.099C86.5366 120.564 81.6897 117.986 80.1116 117.523C79.0935 117.223 76.4028 118.245 75.0756 118.732C69.476 120.783 66.0472 119.73 66.0472 119.73L65 114.015" fill="#FFB27D"/>
<path fill-rule="evenodd" clip-rule="evenodd" d="M35.885 55.9893C28.1671 66.696 12.8616 112.321 21.635 118.41C31.5145 125.261 66.5936 120.201 66.5936 120.201C66.5936 120.201 67.7612 114.774 66.1381 112.145C64.5114 109.519 38.119 105.279 36.9008 104.067C35.6825 102.855 52.1268 80.4309 52.1268 76.7948C52.1268 73.1588 56.5944 48 56.5944 48C56.5944 48 41.3652 48.3827 35.885 55.9893Z" fill="white"/>
<path fill-rule="evenodd" clip-rule="evenodd" d="M79 116C79 116 81.6763 119.301 82.5541 119.694C83.4318 120.087 84 119.989 84 119.989L82.1975 116.887L79 116" fill="#FFB27D"/>
<path fill-rule="evenodd" clip-rule="evenodd" d="M78 113L86 116.533C86 116.533 85.6578 117.038 84.6754 116.998C83.689 116.957 81.2048 116.13 81.2048 116.13L78 113" fill="#FFB27D"/>
<path fill-rule="evenodd" clip-rule="evenodd" d="M83 124H139.886L157 81H100.201L83 124" fill="#FDC748"/>
<path fill-rule="evenodd" clip-rule="evenodd" d="M140 122H65V124H139.335L140 122" fill="#E6B137"/>
<path fill-rule="evenodd" clip-rule="evenodd" d="M124.882 102.498C125.341 101.119 124.42 100 122.825 100C121.235 100 119.574 101.119 119.116 102.498C118.662 103.878 119.582 105 121.173 105C122.768 105 124.428 103.878 124.882 102.498" fill="white"/>
</svg>
